<svg xmlns="http://www.w3.org/2000/svg" viewBox="0 0 600 600" width="600" height="600">
  <!-- Botanical watermark combining cherry blossom (ðŸŒ¸) and leaf (ðŸƒ) elements -->
  <!-- Opacity controlled via CSS (0.15) -->

  <g id="botanical-flourish" fill="none" stroke="#8BA888" stroke-linecap="round" stroke-linejoin="round">

    <!-- CHERRY BLOSSOM BRANCH 1: Upper-left area -->
    <g id="blossom-branch-1" transform="translate(150, 120)">
      <!-- Main branch -->
      <path d="M 0,0 Q 15,30 25,60 Q 32,90 35,120 Q 37,145 38,170"
            stroke-width="3"/>

      <!-- Side branches -->
      <path d="M 25,60 Q 35,65 45,68" stroke-width="2"/>
      <path d="M 32,90 Q 40,92 50,93" stroke-width="2"/>
      <path d="M 35,120 Q 42,125 48,132" stroke-width="2"/>
      <path d="M 37,145 Q 30,150 25,158" stroke-width="1.5"/>

      <!-- Cherry Blossom 1: On main branch -->
      <g transform="translate(10, 25)">
        <!-- 5 petals -->
        <path d="M 0,-8 Q 3,-10 5,-8 Q 6,-5 4,-3 Q 1,-2 0,-3 Z" stroke-width="1.5"/>
        <path d="M 5.5,-5 Q 8,-6 10,-4 Q 10,-1 8,1 Q 5,1 4,-1 Z" stroke-width="1.5" transform="rotate(72 0 0)"/>
        <path d="M 5.5,-5 Q 8,-6 10,-4 Q 10,-1 8,1 Q 5,1 4,-1 Z" stroke-width="1.5" transform="rotate(144 0 0)"/>
        <path d="M 5.5,-5 Q 8,-6 10,-4 Q 10,-1 8,1 Q 5,1 4,-1 Z" stroke-width="1.5" transform="rotate(216 0 0)"/>
        <path d="M 5.5,-5 Q 8,-6 10,-4 Q 10,-1 8,1 Q 5,1 4,-1 Z" stroke-width="1.5" transform="rotate(288 0 0)"/>
        <!-- Center -->
        <circle cx="0" cy="0" r="2" stroke-width="1.5"/>
      </g>

      <!-- Cherry Blossom 2: Larger on main branch -->
      <g transform="translate(20, 50)">
        <path d="M 0,-10 Q 4,-13 7,-10 Q 8,-6 5,-3 Q 1,-2 0,-4 Z" stroke-width="2"/>
        <path d="M 7,-6 Q 11,-8 14,-5 Q 14,-1 11,2 Q 7,2 5,0 Z" stroke-width="2" transform="rotate(72 0 0)"/>
        <path d="M 7,-6 Q 11,-8 14,-5 Q 14,-1 11,2 Q 7,2 5,0 Z" stroke-width="2" transform="rotate(144 0 0)"/>
        <path d="M 7,-6 Q 11,-8 14,-5 Q 14,-1 11,2 Q 7,2 5,0 Z" stroke-width="2" transform="rotate(216 0 0)"/>
        <path d="M 7,-6 Q 11,-8 14,-5 Q 14,-1 11,2 Q 7,2 5,0 Z" stroke-width="2" transform="rotate(288 0 0)"/>
        <circle cx="0" cy="0" r="2.5" stroke-width="2"/>
      </g>

      <!-- Cherry Blossom 3: On side branch -->
      <g transform="translate(45, 68)">
        <path d="M 0,-7 Q 3,-9 5,-7 Q 6,-4 4,-2 Q 1,-1 0,-2 Z" stroke-width="1.5"/>
        <path d="M 5,-4 Q 8,-5 10,-3 Q 10,0 8,2 Q 5,2 4,0 Z" stroke-width="1.5" transform="rotate(72 0 0)"/>
        <path d="M 5,-4 Q 8,-5 10,-3 Q 10,0 8,2 Q 5,2 4,0 Z" stroke-width="1.5" transform="rotate(144 0 0)"/>
        <path d="M 5,-4 Q 8,-5 10,-3 Q 10,0 8,2 Q 5,2 4,0 Z" stroke-width="1.5" transform="rotate(216 0 0)"/>
        <path d="M 5,-4 Q 8,-5 10,-3 Q 10,0 8,2 Q 5,2 4,0 Z" stroke-width="1.5" transform="rotate(288 0 0)"/>
        <circle cx="0" cy="0" r="1.8" stroke-width="1.5"/>
      </g>

      <!-- Cherry Blossom 4: On main branch -->
      <g transform="translate(28, 80)">
        <path d="M 0,-9 Q 3,-11 6,-9 Q 7,-5 5,-3 Q 1,-2 0,-3 Z" stroke-width="2"/>
        <path d="M 6,-5 Q 10,-7 12,-4 Q 12,-1 10,2 Q 6,2 5,0 Z" stroke-width="2" transform="rotate(72 0 0)"/>
        <path d="M 6,-5 Q 10,-7 12,-4 Q 12,-1 10,2 Q 6,2 5,0 Z" stroke-width="2" transform="rotate(144 0 0)"/>
        <path d="M 6,-5 Q 10,-7 12,-4 Q 12,-1 10,2 Q 6,2 5,0 Z" stroke-width="2" transform="rotate(216 0 0)"/>
        <path d="M 6,-5 Q 10,-7 12,-4 Q 12,-1 10,2 Q 6,2 5,0 Z" stroke-width="2" transform="rotate(288 0 0)"/>
        <circle cx="0" cy="0" r="2.2" stroke-width="2"/>
      </g>

      <!-- Cherry Blossom 5: On side branch -->
      <g transform="translate(50, 93)">
        <path d="M 0,-6 Q 2,-8 4,-6 Q 5,-3 3,-1 Q 1,0 0,-1 Z" stroke-width="1.5"/>
        <path d="M 4,-3 Q 7,-4 9,-2 Q 9,1 7,3 Q 4,3 3,1 Z" stroke-width="1.5" transform="rotate(72 0 0)"/>
        <path d="M 4,-3 Q 7,-4 9,-2 Q 9,1 7,3 Q 4,3 3,1 Z" stroke-width="1.5" transform="rotate(144 0 0)"/>
        <path d="M 4,-3 Q 7,-4 9,-2 Q 9,1 7,3 Q 4,3 3,1 Z" stroke-width="1.5" transform="rotate(216 0 0)"/>
        <path d="M 4,-3 Q 7,-4 9,-2 Q 9,1 7,3 Q 4,3 3,1 Z" stroke-width="1.5" transform="rotate(288 0 0)"/>
        <circle cx="0" cy="0" r="1.6" stroke-width="1.5"/>
      </g>

      <!-- Cherry Blossom 6: Small on lower side branch -->
      <g transform="translate(25, 158)">
        <path d="M 0,-5 Q 2,-6 4,-5 Q 5,-2 3,-1 Q 1,0 0,-1 Z" stroke-width="1.5"/>
        <path d="M 4,-2 Q 6,-3 7,-1 Q 7,1 6,2 Q 4,2 3,1 Z" stroke-width="1.5" transform="rotate(72 0 0)"/>
        <path d="M 4,-2 Q 6,-3 7,-1 Q 7,1 6,2 Q 4,2 3,1 Z" stroke-width="1.5" transform="rotate(144 0 0)"/>
        <path d="M 4,-2 Q 6,-3 7,-1 Q 7,1 6,2 Q 4,2 3,1 Z" stroke-width="1.5" transform="rotate(216 0 0)"/>
        <path d="M 4,-2 Q 6,-3 7,-1 Q 7,1 6,2 Q 4,2 3,1 Z" stroke-width="1.5" transform="rotate(288 0 0)"/>
        <circle cx="0" cy="0" r="1.4" stroke-width="1.5"/>
      </g>
    </g>

    <!-- CHERRY BLOSSOM BRANCH 2: Center-right area (smaller, rotated) -->
    <g id="blossom-branch-2" transform="translate(450, 280) rotate(-20) scale(0.75)">
      <!-- Main branch -->
      <path d="M 0,0 Q -10,25 -15,50 Q -18,75 -20,100"
            stroke-width="2.5"/>

      <!-- Side branches -->
      <path d="M -15,50 Q -25,53 -32,55" stroke-width="2"/>
      <path d="M -18,75 Q -26,80 -30,87" stroke-width="1.5"/>

      <!-- Cherry Blossom 1 -->
      <g transform="translate(-8, 20)">
        <path d="M 0,-7 Q 3,-9 5,-7 Q 6,-4 4,-2 Q 1,-1 0,-2 Z" stroke-width="1.5"/>
        <path d="M 5,-4 Q 8,-5 10,-3 Q 10,0 8,2 Q 5,2 4,0 Z" stroke-width="1.5" transform="rotate(72 0 0)"/>
        <path d="M 5,-4 Q 8,-5 10,-3 Q 10,0 8,2 Q 5,2 4,0 Z" stroke-width="1.5" transform="rotate(144 0 0)"/>
        <path d="M 5,-4 Q 8,-5 10,-3 Q 10,0 8,2 Q 5,2 4,0 Z" stroke-width="1.5" transform="rotate(216 0 0)"/>
        <path d="M 5,-4 Q 8,-5 10,-3 Q 10,0 8,2 Q 5,2 4,0 Z" stroke-width="1.5" transform="rotate(288 0 0)"/>
        <circle cx="0" cy="0" r="1.8" stroke-width="1.5"/>
      </g>

      <!-- Cherry Blossom 2: Larger -->
      <g transform="translate(-12, 45)">
        <path d="M 0,-9 Q 3,-11 6,-9 Q 7,-5 5,-3 Q 1,-2 0,-3 Z" stroke-width="2"/>
        <path d="M 6,-5 Q 10,-7 12,-4 Q 12,-1 10,2 Q 6,2 5,0 Z" stroke-width="2" transform="rotate(72 0 0)"/>
        <path d="M 6,-5 Q 10,-7 12,-4 Q 12,-1 10,2 Q 6,2 5,0 Z" stroke-width="2" transform="rotate(144 0 0)"/>
        <path d="M 6,-5 Q 10,-7 12,-4 Q 12,-1 10,2 Q 6,2 5,0 Z" stroke-width="2" transform="rotate(216 0 0)"/>
        <path d="M 6,-5 Q 10,-7 12,-4 Q 12,-1 10,2 Q 6,2 5,0 Z" stroke-width="2" transform="rotate(288 0 0)"/>
        <circle cx="0" cy="0" r="2.2" stroke-width="2"/>
      </g>

      <!-- Cherry Blossom 3: On side branch -->
      <g transform="translate(-32, 55)">
        <path d="M 0,-6 Q 2,-8 4,-6 Q 5,-3 3,-1 Q 1,0 0,-1 Z" stroke-width="1.5"/>
        <path d="M 4,-3 Q 7,-4 9,-2 Q 9,1 7,3 Q 4,3 3,1 Z" stroke-width="1.5" transform="rotate(72 0 0)"/>
        <path d="M 4,-3 Q 7,-4 9,-2 Q 9,1 7,3 Q 4,3 3,1 Z" stroke-width="1.5" transform="rotate(144 0 0)"/>
        <path d="M 4,-3 Q 7,-4 9,-2 Q 9,1 7,3 Q 4,3 3,1 Z" stroke-width="1.5" transform="rotate(216 0 0)"/>
        <path d="M 4,-3 Q 7,-4 9,-2 Q 9,1 7,3 Q 4,3 3,1 Z" stroke-width="1.5" transform="rotate(288 0 0)"/>
        <circle cx="0" cy="0" r="1.6" stroke-width="1.5"/>
      </g>

      <!-- Cherry Blossom 4 -->
      <g transform="translate(-16, 68)">
        <path d="M 0,-8 Q 3,-10 5,-8 Q 6,-5 4,-3 Q 1,-2 0,-3 Z" stroke-width="1.5"/>
        <path d="M 5,-5 Q 8,-6 10,-4 Q 10,-1 8,1 Q 5,1 4,-1 Z" stroke-width="1.5" transform="rotate(72 0 0)"/>
        <path d="M 5,-5 Q 8,-6 10,-4 Q 10,-1 8,1 Q 5,1 4,-1 Z" stroke-width="1.5" transform="rotate(144 0 0)"/>
        <path d="M 5,-5 Q 8,-6 10,-4 Q 10,-1 8,1 Q 5,1 4,-1 Z" stroke-width="1.5" transform="rotate(216 0 0)"/>
        <path d="M 5,-5 Q 8,-6 10,-4 Q 10,-1 8,1 Q 5,1 4,-1 Z" stroke-width="1.5" transform="rotate(288 0 0)"/>
        <circle cx="0" cy="0" r="2" stroke-width="1.5"/>
      </g>

      <!-- Cherry Blossom 5: On lower side branch -->
      <g transform="translate(-30, 87)">
        <path d="M 0,-5 Q 2,-6 4,-5 Q 5,-2 3,-1 Q 1,0 0,-1 Z" stroke-width="1.5"/>
        <path d="M 4,-2 Q 6,-3 7,-1 Q 7,1 6,2 Q 4,2 3,1 Z" stroke-width="1.5" transform="rotate(72 0 0)"/>
        <path d="M 4,-2 Q 6,-3 7,-1 Q 7,1 6,2 Q 4,2 3,1 Z" stroke-width="1.5" transform="rotate(144 0 0)"/>
        <path d="M 4,-2 Q 6,-3 7,-1 Q 7,1 6,2 Q 4,2 3,1 Z" stroke-width="1.5" transform="rotate(216 0 0)"/>
        <path d="M 4,-2 Q 6,-3 7,-1 Q 7,1 6,2 Q 4,2 3,1 Z" stroke-width="1.5" transform="rotate(288 0 0)"/>
        <circle cx="0" cy="0" r="1.4" stroke-width="1.5"/>
      </g>
    </g>

    <!-- LARGE FLOWING LEAF 1: Upper-right -->
    <g id="large-leaf-1" transform="translate(480, 100) rotate(-15)">
      <!-- Leaf outline -->
      <path d="M 0,0 Q 15,10 25,25 Q 30,40 28,55 Q 25,70 15,80 Q 5,85 -5,80 Q -15,70 -18,55 Q -20,40 -15,25 Q -5,10 0,0 Z"
            stroke-width="2.5"/>
      <!-- Central vein -->
      <line x1="0" y1="0" x2="5" y2="75" stroke-width="1.5"/>
      <!-- Side veins -->
      <line x1="5" y1="25" x2="20" y2="30" stroke-width="1"/>
      <line x1="5" y1="40" x2="22" y2="47" stroke-width="1"/>
      <line x1="5" y1="55" x2="18" y2="63" stroke-width="1"/>
      <line x1="5" y1="25" x2="-10" y2="30" stroke-width="1"/>
      <line x1="5" y1="40" x2="-12" y2="47" stroke-width="1"/>
      <line x1="5" y1="55" x2="-8" y2="63" stroke-width="1"/>
    </g>

    <!-- LARGE FLOWING LEAF 2: Lower-left -->
    <g id="large-leaf-2" transform="translate(100, 450) rotate(35)">
      <path d="M 0,0 Q 12,8 20,20 Q 24,32 22,44 Q 18,56 10,64 Q 0,68 -10,64 Q -18,56 -20,44 Q -22,32 -16,20 Q -8,8 0,0 Z"
            stroke-width="2.5"/>
      <line x1="0" y1="2" x2="2" y2="62" stroke-width="1.5"/>
      <line x1="2" y1="20" x2="16" y2="24" stroke-width="1"/>
      <line x1="2" y1="35" x2="18" y2="40" stroke-width="1"/>
      <line x1="2" y1="50" x2="14" y2="56" stroke-width="1"/>
      <line x1="2" y1="20" x2="-12" y2="24" stroke-width="1"/>
      <line x1="2" y1="35" x2="-14" y2="40" stroke-width="1"/>
      <line x1="2" y1="50" x2="-10" y2="56" stroke-width="1"/>
    </g>

    <!-- MEDIUM LEAF 1: Center -->
    <g id="medium-leaf-1" transform="translate(300, 320) rotate(-25)">
      <path d="M 0,0 Q 8,6 13,15 Q 16,24 14,33 Q 11,42 5,48 Q -2,52 -9,48 Q -15,42 -17,33 Q -18,24 -13,15 Q -6,6 0,0 Z"
            stroke-width="2"/>
      <line x1="0" y1="2" x2="0" y2="46" stroke-width="1.5"/>
    </g>

    <!-- MEDIUM LEAF 2: Lower-right -->
    <g id="medium-leaf-2" transform="translate(480, 500) rotate(10)">
      <path d="M 0,0 Q 10,5 15,14 Q 18,23 16,32 Q 13,40 6,46 Q -1,50 -8,46 Q -14,40 -16,32 Q -17,23 -12,14 Q -5,5 0,0 Z"
            stroke-width="2"/>
      <line x1="0" y1="2" x2="1" y2="44" stroke-width="1.5"/>
    </g>

    <!-- MEDIUM LEAF 3: Upper-center -->
    <g id="medium-leaf-3" transform="translate(320, 180) rotate(45)">
      <path d="M 0,0 Q 7,5 11,12 Q 14,19 12,27 Q 9,34 4,39 Q -1,42 -7,39 Q -11,34 -13,27 Q -14,19 -10,12 Q -4,5 0,0 Z"
            stroke-width="2"/>
      <line x1="0" y1="2" x2="-1" y2="37" stroke-width="1.5"/>
    </g>

    <!-- SMALL LEAF 1: Floating upper-center -->
    <g id="small-leaf-1" transform="translate(380, 80) rotate(-40)">
      <path d="M 0,0 Q 5,3 8,8 Q 10,13 8,18 Q 6,23 2,26 Q -2,28 -6,26 Q -9,23 -10,18 Q -11,13 -8,8 Q -3,3 0,0 Z"
            stroke-width="1.5"/>
    </g>

    <!-- SMALL LEAF 2: Lower-center -->
    <g id="small-leaf-2" transform="translate(350, 480) rotate(60)">
      <path d="M 0,0 Q 4,2 7,6 Q 9,11 7,16 Q 5,20 1,23 Q -2,25 -5,23 Q -8,20 -9,16 Q -10,11 -7,6 Q -3,2 0,0 Z"
            stroke-width="1.5"/>
    </g>

    <!-- CONNECTING STEM CURVES (for flow) -->
    <path d="M 180,200 Q 240,260 280,300"
          stroke-width="2" opacity="0.6"/>
    <path d="M 200,280 Q 260,340 300,380"
          stroke-width="1.5" opacity="0.5"/>

  </g>
</svg>
