<svg xmlns="http://www.w3.org/2000/svg" width="1600" height="900" viewBox="0 0 1600 900" role="img" aria-label="EDH Dev plant-tech hero background">
  <defs>
    <!-- Soft brand gradients -->
    <linearGradient id="bgGrad" x1="0" y1="0" x2="1" y2="1">
      <stop offset="0%" stop-color="#0f766e" stop-opacity=".18"/>
      <stop offset="100%" stop-color="#0b4c57" stop-opacity=".18"/>
    </linearGradient>
    <radialGradient id="glow1" cx="75%" cy="40%" r="60%">
      <stop offset="0%" stop-color="#91f0ea" stop-opacity=".25"/>
      <stop offset="100%" stop-color="#91f0ea" stop-opacity="0"/>
    </radialGradient>
    <radialGradient id="glow2" cx="45%" cy="65%" r="55%">
      <stop offset="0%" stop-color="#79e8e1" stop-opacity=".18"/>
      <stop offset="100%" stop-color="#79e8e1" stop-opacity="0"/>
    </radialGradient>
    <!-- Stroke gradient for cyber lines -->
    <linearGradient id="lineGrad" x1="0" y1="0" x2="1" y2="1">
      <stop offset="0%" stop-color="#15b8b0"/>
      <stop offset="100%" stop-color="#0f766e"/>
    </linearGradient>
    <!-- Leaf fill gradient -->
    <linearGradient id="leafGrad" x1="0" y1="0" x2="0" y2="1">
      <stop offset="0%" stop-color="#d6fff8" stop-opacity=".55"/>
      <stop offset="100%" stop-color="#8de4db" stop-opacity=".4"/>
    </linearGradient>
    <!-- Dark mode overrides -->
    <style>
      .bg    { fill: url(#bgGrad); }
      .glow1 { fill: url(#glow1); }
      .glow2 { fill: url(#glow2); }
      .leaf  { fill: url(#leafGrad); stroke: #0f766e; stroke-opacity: .35; stroke-width: 1.5; }
      .leaf2 { fill: none; stroke: #0f766e; stroke-opacity: .28; stroke-width: 1.5; }
      .vein  { fill: none; stroke: url(#lineGrad); stroke-width: 2.2; stroke-linecap: round; stroke-linejoin: round; opacity: .8; }
      .node  { fill: #15b8b0; opacity: .75; }
      .trace { fill: none; stroke: url(#lineGrad); stroke-width: 1.8; stroke-linecap: round; stroke-linejoin: round; opacity: .8; }
      .ring  { fill: none; stroke: url(#lineGrad); stroke-opacity: .8; stroke-width: 1.4; }
      @media (prefers-color-scheme: dark) {
        .leaf  { stroke-opacity: .5; }
        .leaf2 { stroke-opacity: .5; }
        .node  { opacity: .9; }
      }
    </style>
    <!-- Simple leaf path symbol (rounded, tropical) -->
    <symbol id="leaf" viewBox="-80 -140 160 280" overflow="visible">
      <path d="M0,-120 C 48,-104 66,-72 70,-40 C 76,20 42,84 0,120 C -42,84 -76,20 -70,-40 C -66,-72 -48,-104 0,-120 Z" />
    </symbol>
  </defs>

  <!-- Subtle gradient wash -->
  <rect class="bg" x="0" y="0" width="1600" height="900"/>
  <rect class="glow1" x="0" y="0" width="1600" height="900"/>
  <rect class="glow2" x="0" y="0" width="1600" height="900"/>

  <!-- Right-side hero illustration group -->
  <g transform="translate(1120, 120)">
    <!-- Layered leaves (Freepik-style depth) -->
    <g opacity=".95">
      <use href="#leaf" class="leaf" transform="translate(200,120) scale(1.35,1.15) rotate(10)"/>
      <use href="#leaf" class="leaf" transform="translate(120,220) scale(1.1,1.0) rotate(-8)"/>
      <use href="#leaf" class="leaf" transform="translate(260,280) scale(1.0,0.95) rotate(20)"/>
      <use href="#leaf" class="leaf" transform="translate(40,340) scale(1.25,1.15) rotate(-16)"/>
      <use href="#leaf" class="leaf2" transform="translate(180,380) scale(1.35,1.2) rotate(6)"/>
      <use href="#leaf" class="leaf2" transform="translate(300,200) scale(0.95,0.9) rotate(-12)"/>
    </g>

    <!-- Central lotus / blossom linework -->
    <g transform="translate(240,210)">
      <path class="ring" d="M0,-120 A120,120 0 1,1 0,120 A120,120 0 1,1 0,-120 Z" opacity=".25"/>
      <path class="ring" d="M0,-150 A150,150 0 1,1 0,150 A150,150 0 1,1 0,-150 Z" opacity=".18"/>

      <!-- Lotus petals -->
      <g opacity=".9">
        <path class="trace" d="M0,-92 C 18,-78 30,-42 32,-10 C 18,-18 6,-20 0,-20 C -6,-20 -18,-18 -32,-10 C -30,-42 -18,-78 0,-92 Z"/>
        <path class="trace" d="M0,-92 C 12,-74 16,-48 18,-22 C 12,-30 6,-34 0,-34 C -6,-34 -12,-30 -18,-22 C -16,-48 -12,-74 0,-92 Z" />
        <path class="trace" d="M0,-92 C -18,-78 -30,-42 -32,-10 C -18,-18 -6,-20 0,-20 C 6,-20 18,-18 32,-10 C 30,-42 18,-78 0,-92 Z"/>
      </g>

      <!-- Cyber stems + pads -->
      <path class="vein" d="M0,-6 V28 H66"/>
      <circle class="node" cx="66" cy="28" r="4.2"/>
      <path class="vein" d="M0,12 H-60 V40"/>
      <circle class="node" cx="-60" cy="40" r="4.2"/>

      <!-- Branching traces -->
      <path class="trace" d="M-10,-12 C-40,-2 -70,30 -88,52"/>
      <circle class="node" cx="-88" cy="52" r="3.6"/>
      <path class="trace" d="M12,-10 C42,8 76,34 100,60"/>
      <circle class="node" cx="100" cy="60" r="3.6"/>
    </g>

    <!-- Bottom cyber-vine -->
    <g transform="translate(80,480)">
      <path class="vein" d="M-120,40 C-20,-20 80,-22 180,16 C240,40 304,50 360,18"/>
      <circle class="node" cx="-36" cy="8" r="3.6"/>
      <circle class="node" cx="88" cy="22" r="3.6"/>
      <circle class="node" cx="210" cy="30" r="3.6"/>
    </g>
  </g>

  <!-- Small ambient leaves lower-left for balance -->
  <g transform="translate(140,700) rotate(-6)">
    <use href="#leaf" class="leaf2" transform="translate(0,0) scale(0.9,0.85)"/>
    <use href="#leaf" class="leaf2" transform="translate(90,-40) scale(0.75,0.7) rotate(-10)"/>
    <use href="#leaf" class="leaf2" transform="translate(190,-20) scale(0.95,0.9) rotate(6)"/>
  </g>
</svg>
