<svg xmlns="http://www.w3.org/2000/svg" width="600" height="600" viewBox="0 0 600 600" aria-hidden="true">
  <defs>
    <linearGradient id="g" x1="0" x2="1" y1="0" y2="1">
      <stop offset="0" stop-color="#8BE7DD" stop-opacity="0.9"/>
      <stop offset="1" stop-color="#CFF7F1" stop-opacity="0.6"/>
    </linearGradient>
    <linearGradient id="g2" x1="1" x2="0" y1="0" y2="1">
      <stop offset="0" stop-color="#7ADCCF" stop-opacity="0.85"/>
      <stop offset="1" stop-color="#B9F0E7" stop-opacity="0.55"/>
    </linearGradient>
    <filter id="soft" x="-10%" y="-10%" width="120%" height="120%">
      <feGaussianBlur in="SourceGraphic" stdDeviation="0.3"/>
    </filter>
  </defs>

  <!-- tech “stems” -->
  <g stroke="url(#g)" stroke-width="2" fill="none" opacity="0.9">
    <path d="M100 520 C 130 460, 160 440, 200 380 S 280 260, 320 220" />
    <path d="M260 540 C 290 500, 330 460, 360 420 S 420 330, 460 300" />
    <path d="M420 520 C 450 470, 470 430, 520 380 S 560 320, 580 300" />
  </g>

  <!-- circuit nodes -->
  <g fill="url(#g2)" filter="url(#soft)" opacity="0.9">
    <circle cx="200" cy="380" r="4"/>
    <circle cx="240" cy="340" r="3.5"/>
    <circle cx="320" cy="220" r="4.5"/>

    <circle cx="360" cy="420" r="4"/>
    <circle cx="400" cy="360" r="3.5"/>
    <circle cx="460" cy="300" r="4.5"/>

    <circle cx="520" cy="380" r="4"/>
    <circle cx="560" cy="340" r="3.5"/>
    <circle cx="580" cy="300" r="4.5"/>
  </g>

  <!-- abstract leaves/flowers -->
  <g fill="url(#g2)" opacity="0.9">
    <path d="M318 206c14 6 14 28-3 33c-10 3-23-4-23-16c0-13 14-20 26-17z" />
    <path d="M458 286c15 6 14 28-4 33c-10 3-22-4-22-16c0-12 13-20 26-17z" />
    <path d="M575 285c13 6 12 25-4 30c-10 3-21-4-21-14c0-11 14-18 25-16z" />
  </g>
</svg>
