<svg xmlns="http://www.w3.org/2000/svg" viewBox="0 0 600 600" width="600" height="600">
  <!-- Botanical watermark: 50% leaves (green), 40% illustrated hyacinths (green), 10% emoji hibiscus (dark purple) -->
  <!-- Opacity controlled via CSS (0.15) -->

  <defs>
    <!-- Grayscale filter (not used for hibiscus) -->
    <filter id="grayscale">
      <feColorMatrix type="saturate" values="0"/>
    </filter>
  </defs>

  <g id="botanical-flourish" fill="none" stroke="#8BA888" stroke-linecap="round" stroke-linejoin="round">

    <!-- ILLUSTRATED HYACINTH BRANCH: Main branch with hyacinth flowers (40%) -->
    <g id="blossom-branch" transform="translate(80, 100)">
      <!-- Main branch -->
      <path d="M 0,0 Q 12,35 18,70 Q 22,100 24,130"
            stroke-width="2.5"/>

      <!-- Side branches -->
      <path d="M 18,70 Q 28,73 38,75" stroke-width="2"/>
      <path d="M 22,100 Q 30,105 36,112" stroke-width="1.5"/>
      <path d="M 12,40 Q 5,42 -2,43" stroke-width="1.5"/>

      <!-- Cherry Blossom 1 -->
      <g transform="translate(8, 25)">
        <path d="M 0,-8 Q 3,-10 5,-8 Q 6,-5 4,-3 Q 1,-2 0,-3 Z" stroke-width="1.5"/>
        <path d="M 5.5,-5 Q 8,-6 10,-4 Q 10,-1 8,1 Q 5,1 4,-1 Z" stroke-width="1.5" transform="rotate(72 0 0)"/>
        <path d="M 5.5,-5 Q 8,-6 10,-4 Q 10,-1 8,1 Q 5,1 4,-1 Z" stroke-width="1.5" transform="rotate(144 0 0)"/>
        <path d="M 5.5,-5 Q 8,-6 10,-4 Q 10,-1 8,1 Q 5,1 4,-1 Z" stroke-width="1.5" transform="rotate(216 0 0)"/>
        <path d="M 5.5,-5 Q 8,-6 10,-4 Q 10,-1 8,1 Q 5,1 4,-1 Z" stroke-width="1.5" transform="rotate(288 0 0)"/>
        <circle cx="0" cy="0" r="2" stroke-width="1.5"/>
      </g>

      <!-- Cherry Blossom 2 -->
      <g transform="translate(15, 55)">
        <path d="M 0,-9 Q 3,-11 6,-9 Q 7,-5 5,-3 Q 1,-2 0,-3 Z" stroke-width="2"/>
        <path d="M 6,-5 Q 10,-7 12,-4 Q 12,-1 10,2 Q 6,2 5,0 Z" stroke-width="2" transform="rotate(72 0 0)"/>
        <path d="M 6,-5 Q 10,-7 12,-4 Q 12,-1 10,2 Q 6,2 5,0 Z" stroke-width="2" transform="rotate(144 0 0)"/>
        <path d="M 6,-5 Q 10,-7 12,-4 Q 12,-1 10,2 Q 6,2 5,0 Z" stroke-width="2" transform="rotate(216 0 0)"/>
        <path d="M 6,-5 Q 10,-7 12,-4 Q 12,-1 10,2 Q 6,2 5,0 Z" stroke-width="2" transform="rotate(288 0 0)"/>
        <circle cx="0" cy="0" r="2.2" stroke-width="2"/>
      </g>

      <!-- Cherry Blossom 3 -->
      <g transform="translate(38, 75)">
        <path d="M 0,-7 Q 3,-9 5,-7 Q 6,-4 4,-2 Q 1,-1 0,-2 Z" stroke-width="1.5"/>
        <path d="M 5,-4 Q 8,-5 10,-3 Q 10,0 8,2 Q 5,2 4,0 Z" stroke-width="1.5" transform="rotate(72 0 0)"/>
        <path d="M 5,-4 Q 8,-5 10,-3 Q 10,0 8,2 Q 5,2 4,0 Z" stroke-width="1.5" transform="rotate(144 0 0)"/>
        <path d="M 5,-4 Q 8,-5 10,-3 Q 10,0 8,2 Q 5,2 4,0 Z" stroke-width="1.5" transform="rotate(216 0 0)"/>
        <path d="M 5,-4 Q 8,-5 10,-3 Q 10,0 8,2 Q 5,2 4,0 Z" stroke-width="1.5" transform="rotate(288 0 0)"/>
        <circle cx="0" cy="0" r="1.8" stroke-width="1.5"/>
      </g>

      <!-- Cherry Blossom 4 -->
      <g transform="translate(20, 85)">
        <path d="M 0,-8 Q 3,-10 5,-8 Q 6,-5 4,-3 Q 1,-2 0,-3 Z" stroke-width="1.5"/>
        <path d="M 5.5,-5 Q 8,-6 10,-4 Q 10,-1 8,1 Q 5,1 4,-1 Z" stroke-width="1.5" transform="rotate(72 0 0)"/>
        <path d="M 5.5,-5 Q 8,-6 10,-4 Q 10,-1 8,1 Q 5,1 4,-1 Z" stroke-width="1.5" transform="rotate(144 0 0)"/>
        <path d="M 5.5,-5 Q 8,-6 10,-4 Q 10,-1 8,1 Q 5,1 4,-1 Z" stroke-width="1.5" transform="rotate(216 0 0)"/>
        <path d="M 5.5,-5 Q 8,-6 10,-4 Q 10,-1 8,1 Q 5,1 4,-1 Z" stroke-width="1.5" transform="rotate(288 0 0)"/>
        <circle cx="0" cy="0" r="2" stroke-width="1.5"/>
      </g>

      <!-- Cherry Blossom 5 -->
      <g transform="translate(36, 112)">
        <path d="M 0,-6 Q 2,-8 4,-6 Q 5,-3 3,-1 Q 1,0 0,-1 Z" stroke-width="1.5"/>
        <path d="M 4,-3 Q 7,-4 9,-2 Q 9,1 7,3 Q 4,3 3,1 Z" stroke-width="1.5" transform="rotate(72 0 0)"/>
        <path d="M 4,-3 Q 7,-4 9,-2 Q 9,1 7,3 Q 4,3 3,1 Z" stroke-width="1.5" transform="rotate(144 0 0)"/>
        <path d="M 4,-3 Q 7,-4 9,-2 Q 9,1 7,3 Q 4,3 3,1 Z" stroke-width="1.5" transform="rotate(216 0 0)"/>
        <path d="M 4,-3 Q 7,-4 9,-2 Q 9,1 7,3 Q 4,3 3,1 Z" stroke-width="1.5" transform="rotate(288 0 0)"/>
        <circle cx="0" cy="0" r="1.6" stroke-width="1.5"/>
      </g>

      <!-- Cherry Blossom 6 -->
      <g transform="translate(10, 110)">
        <path d="M 0,-7 Q 2.5,-9 5,-7 Q 6,-4 4,-2 Q 1,-1 0,-2 Z" stroke-width="1.5"/>
        <path d="M 5,-4 Q 7.5,-5 10,-3 Q 10,0 8,2 Q 5,2 4,0 Z" stroke-width="1.5" transform="rotate(72 0 0)"/>
        <path d="M 5,-4 Q 7.5,-5 10,-3 Q 10,0 8,2 Q 5,2 4,0 Z" stroke-width="1.5" transform="rotate(144 0 0)"/>
        <path d="M 5,-4 Q 7.5,-5 10,-3 Q 10,0 8,2 Q 5,2 4,0 Z" stroke-width="1.5" transform="rotate(216 0 0)"/>
        <path d="M 5,-4 Q 7.5,-5 10,-3 Q 10,0 8,2 Q 5,2 4,0 Z" stroke-width="1.5" transform="rotate(288 0 0)"/>
        <circle cx="0" cy="0" r="1.8" stroke-width="1.5"/>
      </g>

      <!-- Cherry Blossom 7 -->
      <g transform="translate(24, 118)">
        <path d="M 0,-6 Q 2,-7 4,-6 Q 5,-3 3,-1 Q 1,0 0,-1 Z" stroke-width="1.5"/>
        <path d="M 4,-3 Q 6,-4 8,-2 Q 8,1 6,2 Q 4,2 3,1 Z" stroke-width="1.5" transform="rotate(72 0 0)"/>
        <path d="M 4,-3 Q 6,-4 8,-2 Q 8,1 6,2 Q 4,2 3,1 Z" stroke-width="1.5" transform="rotate(144 0 0)"/>
        <path d="M 4,-3 Q 6,-4 8,-2 Q 8,1 6,2 Q 4,2 3,1 Z" stroke-width="1.5" transform="rotate(216 0 0)"/>
        <path d="M 4,-3 Q 6,-4 8,-2 Q 8,1 6,2 Q 4,2 3,1 Z" stroke-width="1.5" transform="rotate(288 0 0)"/>
        <circle cx="0" cy="0" r="1.5" stroke-width="1.5"/>
      </g>

      <!-- Cherry Blossom 8 -->
      <g transform="translate(-2, 43)">
        <path d="M 0,-7 Q 2.5,-9 5,-7 Q 6,-4 4,-2 Q 1,-1 0,-2 Z" stroke-width="1.5"/>
        <path d="M 5,-4 Q 7.5,-5 10,-3 Q 10,0 8,2 Q 5,2 4,0 Z" stroke-width="1.5" transform="rotate(72 0 0)"/>
        <path d="M 5,-4 Q 7.5,-5 10,-3 Q 10,0 8,2 Q 5,2 4,0 Z" stroke-width="1.5" transform="rotate(144 0 0)"/>
        <path d="M 5,-4 Q 7.5,-5 10,-3 Q 10,0 8,2 Q 5,2 4,0 Z" stroke-width="1.5" transform="rotate(216 0 0)"/>
        <path d="M 5,-4 Q 7.5,-5 10,-3 Q 10,0 8,2 Q 5,2 4,0 Z" stroke-width="1.5" transform="rotate(288 0 0)"/>
        <circle cx="0" cy="0" r="1.8" stroke-width="1.5"/>
      </g>

      <!-- Cherry Blossom 9 -->
      <g transform="translate(30, 45)">
        <path d="M 0,-8 Q 3,-10 5,-8 Q 6,-5 4,-3 Q 1,-2 0,-3 Z" stroke-width="1.5"/>
        <path d="M 5.5,-5 Q 8,-6 10,-4 Q 10,-1 8,1 Q 5,1 4,-1 Z" stroke-width="1.5" transform="rotate(72 0 0)"/>
        <path d="M 5.5,-5 Q 8,-6 10,-4 Q 10,-1 8,1 Q 5,1 4,-1 Z" stroke-width="1.5" transform="rotate(144 0 0)"/>
        <path d="M 5.5,-5 Q 8,-6 10,-4 Q 10,-1 8,1 Q 5,1 4,-1 Z" stroke-width="1.5" transform="rotate(216 0 0)"/>
        <path d="M 5.5,-5 Q 8,-6 10,-4 Q 10,-1 8,1 Q 5,1 4,-1 Z" stroke-width="1.5" transform="rotate(288 0 0)"/>
        <circle cx="0" cy="0" r="2" stroke-width="1.5"/>
      </g>

      <!-- Cherry Blossom 10 -->
      <g transform="translate(14, 5)">
        <path d="M 0,-6 Q 2,-8 4,-6 Q 5,-3 3,-1 Q 1,0 0,-1 Z" stroke-width="1.5"/>
        <path d="M 4,-3 Q 7,-4 9,-2 Q 9,1 7,3 Q 4,3 3,1 Z" stroke-width="1.5" transform="rotate(72 0 0)"/>
        <path d="M 4,-3 Q 7,-4 9,-2 Q 9,1 7,3 Q 4,3 3,1 Z" stroke-width="1.5" transform="rotate(144 0 0)"/>
        <path d="M 4,-3 Q 7,-4 9,-2 Q 9,1 7,3 Q 4,3 3,1 Z" stroke-width="1.5" transform="rotate(216 0 0)"/>
        <path d="M 4,-3 Q 7,-4 9,-2 Q 9,1 7,3 Q 4,3 3,1 Z" stroke-width="1.5" transform="rotate(288 0 0)"/>
        <circle cx="0" cy="0" r="1.6" stroke-width="1.5"/>
      </g>
    </g>

    <!-- LEAVES (50% - dominant element) -->

    <!-- Large flowing leaf 1 -->
    <g id="large-leaf-1" transform="translate(450, 80) rotate(-15)">
      <path d="M 0,0 Q 15,10 25,25 Q 30,40 28,55 Q 25,70 15,80 Q 5,85 -5,80 Q -15,70 -18,55 Q -20,40 -15,25 Q -5,10 0,0 Z"
            stroke-width="2.5"/>
      <line x1="0" y1="0" x2="5" y2="75" stroke-width="1.5"/>
      <line x1="5" y1="25" x2="20" y2="30" stroke-width="1"/>
      <line x1="5" y1="40" x2="22" y2="47" stroke-width="1"/>
      <line x1="5" y1="55" x2="18" y2="63" stroke-width="1"/>
      <line x1="5" y1="25" x2="-10" y2="30" stroke-width="1"/>
      <line x1="5" y1="40" x2="-12" y2="47" stroke-width="1"/>
      <line x1="5" y1="55" x2="-8" y2="63" stroke-width="1"/>
    </g>

    <!-- Large flowing leaf 2 -->
    <g id="large-leaf-2" transform="translate(150, 500) rotate(35)">
      <path d="M 0,0 Q 12,8 20,20 Q 24,32 22,44 Q 18,56 10,64 Q 0,68 -10,64 Q -18,56 -20,44 Q -22,32 -16,20 Q -8,8 0,0 Z"
            stroke-width="2.5"/>
      <line x1="0" y1="2" x2="2" y2="62" stroke-width="1.5"/>
      <line x1="2" y1="20" x2="16" y2="24" stroke-width="1"/>
      <line x1="2" y1="35" x2="18" y2="40" stroke-width="1"/>
      <line x1="2" y1="50" x2="14" y2="56" stroke-width="1"/>
      <line x1="2" y1="20" x2="-12" y2="24" stroke-width="1"/>
      <line x1="2" y1="35" x2="-14" y2="40" stroke-width="1"/>
      <line x1="2" y1="50" x2="-10" y2="56" stroke-width="1"/>
    </g>

    <!-- Large flowing leaf 3 -->
    <g id="large-leaf-3" transform="translate(500, 420) rotate(20)">
      <path d="M 0,0 Q 14,9 23,23 Q 28,38 26,52 Q 23,67 14,76 Q 4,81 -6,76 Q -16,67 -19,52 Q -21,38 -16,23 Q -6,9 0,0 Z"
            stroke-width="2.5"/>
      <line x1="0" y1="0" x2="4" y2="72" stroke-width="1.5"/>
      <line x1="4" y1="23" x2="19" y2="28" stroke-width="1"/>
      <line x1="4" y1="38" x2="21" y2="45" stroke-width="1"/>
      <line x1="4" y1="52" x2="17" y2="60" stroke-width="1"/>
      <line x1="4" y1="23" x2="-11" y2="28" stroke-width="1"/>
      <line x1="4" y1="38" x2="-13" y2="45" stroke-width="1"/>
      <line x1="4" y1="52" x2="-9" y2="60" stroke-width="1"/>
    </g>

    <!-- Medium leaf 1 -->
    <g id="medium-leaf-1" transform="translate(280, 200) rotate(-25)">
      <path d="M 0,0 Q 8,6 13,15 Q 16,24 14,33 Q 11,42 5,48 Q -2,52 -9,48 Q -15,42 -17,33 Q -18,24 -13,15 Q -6,6 0,0 Z"
            stroke-width="2"/>
      <line x1="0" y1="2" x2="0" y2="46" stroke-width="1.5"/>
    </g>

    <!-- Medium leaf 2 -->
    <g id="medium-leaf-2" transform="translate(380, 520) rotate(10)">
      <path d="M 0,0 Q 10,5 15,14 Q 18,23 16,32 Q 13,40 6,46 Q -1,50 -8,46 Q -14,40 -16,32 Q -17,23 -12,14 Q -5,5 0,0 Z"
            stroke-width="2"/>
      <line x1="0" y1="2" x2="1" y2="44" stroke-width="1.5"/>
    </g>

    <!-- Medium leaf 3 -->
    <g id="medium-leaf-3" transform="translate(240, 360) rotate(45)">
      <path d="M 0,0 Q 7,5 11,12 Q 14,19 12,27 Q 9,34 4,39 Q -1,42 -7,39 Q -11,34 -13,27 Q -14,19 -10,12 Q -4,5 0,0 Z"
            stroke-width="2"/>
      <line x1="0" y1="2" x2="-1" y2="37" stroke-width="1.5"/>
    </g>

    <!-- Medium leaf 4 -->
    <g id="medium-leaf-4" transform="translate(50, 320) rotate(-35)">
      <path d="M 0,0 Q 9,6 14,14 Q 17,22 15,31 Q 12,39 6,45 Q -1,49 -8,45 Q -13,39 -15,31 Q -16,22 -12,14 Q -5,6 0,0 Z"
            stroke-width="2"/>
      <line x1="0" y1="2" x2="1" y2="43" stroke-width="1.5"/>
    </g>

    <!-- Medium leaf 5 -->
    <g id="medium-leaf-5" transform="translate(550, 240) rotate(60)">
      <path d="M 0,0 Q 8,5 12,13 Q 15,21 13,29 Q 10,37 5,42 Q -1,46 -7,42 Q -12,37 -14,29 Q -15,21 -11,13 Q -5,5 0,0 Z"
            stroke-width="2"/>
      <line x1="0" y1="2" x2="0" y2="40" stroke-width="1.5"/>
    </g>

    <!-- Small leaf 1 -->
    <g id="small-leaf-1" transform="translate(180, 50) rotate(-40)">
      <path d="M 0,0 Q 5,3 8,8 Q 10,13 8,18 Q 6,23 2,26 Q -2,28 -6,26 Q -9,23 -10,18 Q -11,13 -8,8 Q -3,3 0,0 Z"
            stroke-width="1.5"/>
    </g>

    <!-- Small leaf 2 -->
    <g id="small-leaf-2" transform="translate(420, 380) rotate(60)">
      <path d="M 0,0 Q 4,2 7,6 Q 9,11 7,16 Q 5,20 1,23 Q -2,25 -5,23 Q -8,20 -9,16 Q -10,11 -7,6 Q -3,2 0,0 Z"
            stroke-width="1.5"/>
    </g>

    <!-- Small leaf 3 -->
    <g id="small-leaf-3" transform="translate(80, 450) rotate(15)">
      <path d="M 0,0 Q 4.5,2.5 7.5,7 Q 9.5,12 7.5,17 Q 5.5,21 1.5,24 Q -2,26 -5.5,24 Q -8.5,21 -9.5,17 Q -10.5,12 -7.5,7 Q -3.5,2.5 0,0 Z"
            stroke-width="1.5"/>
    </g>

    <!-- Small leaf 4 -->
    <g id="small-leaf-4" transform="translate(320, 540) rotate(-50)">
      <path d="M 0,0 Q 4,2 6.5,6 Q 8.5,11 6.5,15 Q 4.5,19 1,22 Q -2,24 -5,22 Q -7.5,19 -8.5,15 Q -9.5,11 -6.5,6 Q -3,2 0,0 Z"
            stroke-width="1.5"/>
    </g>

    <!-- CONNECTING STEM CURVES (for flow) -->
    <path d="M 100,200 Q 180,250 240,300"
          stroke-width="2" opacity="0.5"/>
    <path d="M 350,150 Q 420,220 480,300"
          stroke-width="1.5" opacity="0.4"/>
    <path d="M 120,450 Q 200,480 280,500"
          stroke-width="1.5" opacity="0.4"/>

    <!-- ILLUSTRATED HIBISCUS FLOWERS (10% - modern line style, green) -->

    <!-- Hibiscus 1 -->
    <g id="hibiscus-1" transform="translate(340, 300) rotate(-10)">
      <!-- Center stigma/style -->
      <line x1="0" y1="-15" x2="0" y2="8" stroke-width="1.5"/>
      <circle cx="0" cy="10" r="2.5" stroke-width="1.5"/>

      <!-- 5 large petals -->
      <path d="M 0,-2 Q -8,-12 -12,-18 Q -14,-22 -11,-25 Q -8,-26 -5,-22 Q -2,-16 0,-10 Z" stroke-width="2"/>
      <path d="M 0,-2 Q 8,-12 12,-18 Q 14,-22 11,-25 Q 8,-26 5,-22 Q 2,-16 0,-10 Z" stroke-width="2"/>
      <path d="M -2,0 Q -15,-2 -22,-4 Q -26,-6 -26,-10 Q -24,-13 -20,-12 Q -12,-8 -6,-4 Z" stroke-width="2"/>
      <path d="M 2,0 Q 15,-2 22,-4 Q 26,-6 26,-10 Q 24,-13 20,-12 Q 12,-8 6,-4 Z" stroke-width="2"/>
      <path d="M 0,2 Q -4,12 -6,18 Q -8,22 -5,25 Q -2,26 1,22 Q 3,14 2,6 Z" stroke-width="2"/>

      <!-- Petal veins -->
      <line x1="0" y1="-10" x2="0" y2="-20" stroke-width="0.8" opacity="0.6"/>
      <line x1="-6" y1="-4" x2="-18" y2="-8" stroke-width="0.8" opacity="0.6"/>
      <line x1="6" y1="-4" x2="18" y2="-8" stroke-width="0.8" opacity="0.6"/>
    </g>

    <!-- Hibiscus 2 -->
    <g id="hibiscus-2" transform="translate(530, 140) rotate(25)">
      <line x1="0" y1="-14" x2="0" y2="7" stroke-width="1.5"/>
      <circle cx="0" cy="9" r="2.2" stroke-width="1.5"/>

      <path d="M 0,-2 Q -7,-11 -11,-17 Q -13,-21 -10,-24 Q -7,-25 -4,-21 Q -2,-15 0,-9 Z" stroke-width="2"/>
      <path d="M 0,-2 Q 7,-11 11,-17 Q 13,-21 10,-24 Q 7,-25 4,-21 Q 2,-15 0,-9 Z" stroke-width="2"/>
      <path d="M -2,0 Q -14,-2 -20,-4 Q -24,-5 -24,-9 Q -22,-12 -18,-11 Q -11,-7 -5,-3 Z" stroke-width="2"/>
      <path d="M 2,0 Q 14,-2 20,-4 Q 24,-5 24,-9 Q 22,-12 18,-11 Q 11,-7 5,-3 Z" stroke-width="2"/>
      <path d="M 0,2 Q -3,11 -5,16 Q -7,20 -4,23 Q -1,24 1,20 Q 2,13 2,5 Z" stroke-width="2"/>

      <line x1="0" y1="-9" x2="0" y2="-18" stroke-width="0.8" opacity="0.6"/>
      <line x1="-5" y1="-3" x2="-16" y2="-7" stroke-width="0.8" opacity="0.6"/>
    </g>

    <!-- Hibiscus 3 (smaller accent) -->
    <g id="hibiscus-3" transform="translate(200, 560) rotate(-30)">
      <line x1="0" y1="-10" x2="0" y2="5" stroke-width="1.2"/>
      <circle cx="0" cy="6" r="1.8" stroke-width="1.2"/>

      <path d="M 0,-1 Q -5,-8 -8,-12 Q -9,-15 -7,-17 Q -5,-18 -3,-15 Q -1,-11 0,-6 Z" stroke-width="1.5"/>
      <path d="M 0,-1 Q 5,-8 8,-12 Q 9,-15 7,-17 Q 5,-18 3,-15 Q 1,-11 0,-6 Z" stroke-width="1.5"/>
      <path d="M -1,0 Q -10,-1 -14,-3 Q -17,-4 -17,-7 Q -15,-9 -13,-8 Q -8,-5 -4,-2 Z" stroke-width="1.5"/>
      <path d="M 1,0 Q 10,-1 14,-3 Q 17,-4 17,-7 Q 15,-9 13,-8 Q 8,-5 4,-2 Z" stroke-width="1.5"/>
      <path d="M 0,1 Q -2,8 -3,12 Q -5,15 -3,17 Q -1,18 1,15 Q 2,9 1,4 Z" stroke-width="1.5"/>
    </g>

  </g>
</svg>
